<svg height='100px' width='100px'  fill="#000000" xmlns="http://www.w3.org/2000/svg" xmlns:xlink="http://www.w3.org/1999/xlink" version="1.1" x="0px" y="0px" viewBox="0 0 100 100" enable-background="new 0 0 100 100" xml:space="preserve"><polygon fill="#000000" points="68.501,79.501 70.165,71.359 50.768,46.456 46.184,55.767 59.896,76.411 "></polygon><polygon fill="#000000" points="94.35,35.385 75.136,22.88 60.098,34.066 78.121,38.896 91.538,39.191 "></polygon><polygon fill="#000000" points="79.326,62.482 73.688,69.126 82.683,65.084 "></polygon><polygon fill="#000000" points="59.617,40.519 73.724,39.271 59.233,35.388 "></polygon><polygon fill="#000000" points="74.99,59.578 69.285,48.405 52.352,46.049 70.771,69.696 "></polygon><path fill="#000000" d="M59.117,42.069l-5.803,2.599l16.564,2.305c0.242,0.034,0.453,0.184,0.564,0.402l6.041,11.83  c0.101,0.196,0.109,0.426,0.024,0.63l-2.991,7.173l4.936-5.815L77.308,40.46L59.117,42.069z"></path><polygon fill="#000000" points="83.379,66.417 81.438,67.289 83.379,70.395 "></polygon><polygon fill="#000000" points="75.452,83.591 59.428,77.837 32.389,89.077 81.553,89.077 "></polygon><polygon fill="#000000" points="73.663,11.841 61.229,31.355 74.331,21.609 "></polygon><polygon fill="#000000" points="22.298,22.517 13.376,26.772 29.144,88.802 58.28,76.69 "></polygon><polygon fill="#000000" points="4.479,29.354 20.407,21.757 10.776,19.168 "></polygon></svg>