<svg height='100px' width='100px'  fill="#000000" xmlns="http://www.w3.org/2000/svg" xmlns:xlink="http://www.w3.org/1999/xlink" version="1.1" x="0px" y="0px" viewBox="0 0 100 100" enable-background="new 0 0 100 100" xml:space="preserve"><path fill="#000000" d="M83.654,61.03c0.244-0.168,0.402-0.436,0.43-0.73l1.118-11.728c0.028-0.011,0.057-0.023,0.085-0.037  l11.231-5.609c0.382-0.19,0.601-0.604,0.544-1.027s-0.376-0.765-0.795-0.848l-7.432-1.482l-4.918-5.405  c-0.07-0.077-0.152-0.143-0.242-0.194l-1.77-1.017l-1.41-5.962c-0.107-0.451-0.51-0.77-0.974-0.77c-0.001,0-0.001,0-0.001,0  c-0.465,0.001-0.867,0.32-0.973,0.772l-1.078,4.618l-7.648,9.678l-11.321,5.332L44.55,40.567c-0.126-0.056-0.262-0.083-0.398-0.083  c-0.075,0-0.15,0.009-0.224,0.025l-9.608,2.209c-0.194,0.045-0.371,0.146-0.507,0.292l-4.795,5.135l-17.207,2.939  c-0.178,0.03-0.345,0.108-0.482,0.227l-8.821,7.562c-0.252,0.216-0.381,0.544-0.342,0.875c0.039,0.33,0.239,0.62,0.535,0.772  l13.846,7.146c0.144,0.074,0.301,0.111,0.458,0.111c0.149,0,0.298-0.033,0.437-0.101l9.075-4.402  c0.097-0.047,0.186-0.109,0.263-0.186l4.938-4.837L26.7,68.011c-0.068,0.132-0.105,0.277-0.11,0.426l-0.178,5.634  c-0.008,0.271,0.093,0.532,0.281,0.728c0.188,0.194,0.448,0.304,0.718,0.304h4.785c0.424,0,0.802-0.268,0.943-0.668  c0.141-0.399,0.014-0.846-0.316-1.111l-2.992-2.407l1.229-2.913l10.944-4.846l3.725,7.531c0.059,0.118,0.14,0.224,0.24,0.311  l4.43,3.857c0.182,0.159,0.416,0.246,0.657,0.246h4.25c0.473,0,0.881-0.33,0.979-0.792s-0.141-0.93-0.572-1.122l-3.959-1.76  l-0.646-5.46l1.716-6.229l9.325,3.407l-2.422,7.263c-0.09,0.271-0.06,0.569,0.084,0.817l1.954,3.376  c0.179,0.309,0.509,0.499,0.865,0.499h3.833c0.452,0,0.848-0.303,0.966-0.739s-0.071-0.897-0.462-1.125l-3.337-1.944v-1.889  l4.352-3.942l1.519,1.094l2.365,7.812c0.127,0.42,0.513,0.708,0.951,0.71l4.747,0.024c0.001,0,0.003,0,0.005,0  c0.438,0,0.824-0.284,0.955-0.703s-0.028-0.875-0.392-1.123L75.03,71.16l2.217-5.737L83.654,61.03z M12.642,52.464l16.199-2.767  l-3.188,12.331l-8.358,4.055L12.642,52.464z M16.129,65.765L4.047,59.529l7.697-6.6L16.129,65.765z M80.875,34.077l1.828,1.062  l1.034,11.531l-12.463-4.799l7.242-9.164l2.192,1.273C80.758,34.022,80.812,34.057,80.875,34.077z M71.193,42.911l12.58,4.844  l-1.16,12.17l-5.885,4.035L71.193,42.911z M70.785,65.68c-0.035-0.057-0.08-0.104-0.132-0.141c-0.001,0-0.001-0.001-0.001-0.002  l-0.002-0.001c-0.001-0.001-0.002-0.001-0.003-0.002l-2.357-1.698L59.221,47.94l10.91-5.139l5.77,21.942l-2.195,5.669L70.785,65.68z   M61.753,69.076l1.966-5.896l3.24,1.183L61.753,69.076z M62.13,70.084v2.155l-0.819-1.414L62.13,70.084z M49.636,65.659  l-2.911,3.657l-3.658-7.395l3.326-4.028l5.126,0.929L49.636,65.659z M30.176,66.771c-0.057,0.014-0.108,0.037-0.157,0.069  l-1.336,0.594l6.989-13.594l9.695,3.727l-3.201,3.877L30.176,66.771z M29.97,49.322l4.179-4.475l0.763,8.175l-7.9,7.739  L29.97,49.322z M51.895,57.874l-5.25-0.951L44.76,42.294l13.038,5.657L51.895,57.874z M45.592,56.582l-9.69-3.725l-0.819-8.775  l8.644-1.986L45.592,56.582z M58.51,48.712l8.289,14.528l-13.913-5.075L58.51,48.712z M78.964,31.81l0.562-2.403l0.748,3.164  L78.964,31.81z M29.331,68.241l-0.917,2.177l-0.376-0.303l0.042-1.317L29.331,68.241z M27.998,71.366l2.779,2.235h-2.85  L27.998,71.366z M49.736,67.141l0.492,4.156L47.42,70.05L49.736,67.141z M52.951,73.602h-1.708l-1.779-1.549L52.951,73.602z   M63.13,72.738l1.481,0.863H63.13V72.738z M73.252,71.584l-0.372,0.959l-0.929-3.066L73.252,71.584z M74.045,72.304l1.891,1.289  l-2.385-0.012L74.045,72.304z M88.743,41.079l5.798,1.156l-6.377,3.18L88.743,41.079z M87.089,45.913l-2.341,0.826l-0.939-10.467  l3.982,4.376L87.089,45.913z"></path></svg>