<svg height='100px' width='100px'  fill="#000000" xmlns="http://www.w3.org/2000/svg" xmlns:xlink="http://www.w3.org/1999/xlink" version="1.1" x="0px" y="0px" viewBox="0 0 100 100" enable-background="new 0 0 100 100" xml:space="preserve"><path fill="#000000" d="M92.717,41.053c0.316,0,0.615-0.15,0.805-0.406l3.528-4.786c0.163-0.222,0.228-0.501,0.179-0.772  c-0.049-0.271-0.208-0.51-0.438-0.659l-19.913-12.95L76.072,9.526c-0.029-0.431-0.332-0.795-0.75-0.901  c-0.082-0.021-0.166-0.031-0.248-0.031c-0.336,0-0.656,0.17-0.843,0.463L58.38,33.944c-0.116,0.183-0.17,0.398-0.153,0.614  l0.479,6.227l-7.67,3.432c-0.213,0.096-0.386,0.263-0.489,0.472l-4.538,9.238L24.216,21.11c-0.134-0.202-0.337-0.349-0.572-0.412  l-12.133-3.287c-0.087-0.023-0.175-0.035-0.262-0.035c-0.341,0-0.666,0.175-0.851,0.475L2.48,30.681  c-0.233,0.378-0.189,0.863,0.107,1.193c0.194,0.217,0.467,0.332,0.745,0.332c0.146,0,0.292-0.032,0.43-0.098l8.875-4.234  l15.831,62.302c0.113,0.443,0.512,0.754,0.969,0.754h54.891c0.413,0,0.784-0.255,0.933-0.641c0.149-0.387,0.044-0.824-0.263-1.102  l-7.666-6.929c-0.098-0.088-0.211-0.155-0.334-0.199l-5.973-2.134l1.627-7.977l8.116-3.646l3.319,5.313  c0.187,0.299,0.51,0.471,0.849,0.471c0.092,0,0.185-0.013,0.275-0.039c0.429-0.123,0.725-0.515,0.725-0.961v-7.767  c0-0.311-0.144-0.603-0.39-0.792l-4.549-3.504l-1.121-20.254l12.817,0.281C92.701,41.053,92.709,41.053,92.717,41.053z   M13.183,25.963c-0.067,0.017-0.127,0.047-0.179,0.086l-8.357,3.978l6.833-11.07l10.469,2.836l-8.763,4.171  C13.185,25.963,13.184,25.963,13.183,25.963z M23.207,22.301l22.549,33.948c0.002,0.003,0.004,0.007,0.007,0.01l13.699,20.625  L29.78,89.245L13.895,26.732L23.207,22.301z M75.933,22.653l19.595,12.743l-3.06,4.15l-13.579-0.298L60.35,34.267L75.933,22.653z   M61.107,32.453l13.57-21.306l0.718,10.658L61.107,32.453z M60.538,76.697l-13.822-20.81l4.825-9.82l19.698,25.306l-1.741,8.532  L60.538,76.697z M52.596,45.795l17.686,2.459l5.805,11.401l-4.441,10.609L52.596,45.795z M77.098,59.828  c0.057-0.136,0.051-0.289-0.016-0.42l-6.028-11.84c-0.074-0.146-0.215-0.246-0.377-0.269l-17.438-2.425l6.645-2.974l18.466-1.61  l1.166,21.075l-6.033,7.101L77.098,59.828z M75.955,39.496l-15.738,1.372l-0.44-5.721L75.955,39.496z M60.229,77.648l9.542,3.417  c0.001,0,0.001,0,0.001,0l0,0l6.628,2.373l6.63,5.991h-51.09L60.229,77.648z M73.593,69.88l6.505-7.654l3.872,2.982L73.593,69.88z   M84.437,66.095v5.249l-2.56-4.097L84.437,66.095z"></path></svg>